<?xml version="1.0" encoding="UTF-8" standalone="no" ?>
<!DOCTYPE svg PUBLIC "-//W3C//DTD SVG 1.1//EN" "http://www.w3.org/Graphics/SVG/1.1/DTD/svg11.dtd">
<svg xmlns="http://www.w3.org/2000/svg" xmlns:xlink="http://www.w3.org/1999/xlink" version="1.1" width="1080" height="1080" viewBox="0 0 1080 1080" xml:space="preserve">
<desc>Created with Fabric.js 5.2.4</desc>
<defs>
</defs>
<g transform="matrix(1 0 0 1 540 540)" id="faac4796-f885-4c4d-99f5-88993ee1b325"  >
<rect style="stroke: none; stroke-width: 1; stroke-dasharray: none; stroke-linecap: butt; stroke-dashoffset: 0; stroke-linejoin: miter; stroke-miterlimit: 4; fill: rgb(255,255,255); fill-rule: nonzero; opacity: 1; visibility: hidden;" vector-effect="non-scaling-stroke"  x="-540" y="-540" rx="0" ry="0" width="1080" height="1080" />
</g>
<g transform="matrix(1 0 0 1 540 540)" id="c2510fcc-36f1-44f1-82bb-7e47d2683aa0"  >
</g>
<g transform="matrix(27 0 0 27 540 540)"  >
<path style="stroke: rgb(255,255,255); stroke-width: 1; stroke-dasharray: none; stroke-linecap: butt; stroke-dashoffset: 0; stroke-linejoin: miter; stroke-miterlimit: 4; fill: rgb(255,255,255); fill-rule: nonzero; opacity: 0.8;"  transform=" translate(-20, -20)" d="M 34.985 16.6667 L 32.3667 16.6667 C 32.0205 16.6594 31.6844 16.5485 31.4018 16.3482 C 31.1193 16.148 30.9033 15.8676 30.7817 15.5433 L 30.7734 15.5217 C 30.6323 15.2063 30.5886 14.856 30.648 14.5157 C 30.7074 14.1754 30.8671 13.8606 31.1067 13.6117 L 32.9567 11.7617 C 33.2722 11.446 33.4494 11.018 33.4494 10.5717 C 33.4494 10.1254 33.2722 9.69734 32.9567 9.38168 L 30.6234 7.04834 C 30.3077 6.73284 29.8797 6.5556 29.4334 6.5556 C 28.9871 6.5556 28.559 6.73284 28.2434 7.04834 L 26.3934 8.89834 C 26.1445 9.13792 25.8297 9.29765 25.4893 9.35704 C 25.149 9.41644 24.7987 9.37278 24.4834 9.23168 L 24.4617 9.23168 C 24.1343 9.10977 23.8514 8.89176 23.65 8.60624 C 23.4487 8.32072 23.3383 7.98102 23.3334 7.63168 L 23.3334 5.01501 C 23.3334 4.569 23.1562 4.14127 22.8408 3.82589 C 22.5255 3.51052 22.0977 3.33334 21.6517 3.33334 L 18.3484 3.33334 C 17.9024 3.33334 17.4746 3.51052 17.1593 3.82589 C 16.8439 4.14127 16.6667 4.569 16.6667 5.01501 L 16.6667 7.63168 C 16.6595 7.97814 16.5487 8.31449 16.3484 8.59732 C 16.1482 8.88015 15.8678 9.09646 15.5434 9.21834 L 15.5217 9.21834 C 15.2064 9.35945 14.8561 9.4031 14.5157 9.34371 C 14.1754 9.28432 13.8606 9.12458 13.6117 8.88501 L 11.7617 7.03501 C 11.446 6.71951 11.018 6.54227 10.5717 6.54227 C 10.1254 6.54227 9.69737 6.71951 9.38171 7.03501 L 7.04837 9.36834 C 6.73287 9.68401 6.55563 10.112 6.55563 10.5583 C 6.55563 11.0046 6.73287 11.4327 7.04837 11.7483 L 8.89837 13.5983 C 9.13795 13.8472 9.29768 14.1621 9.35707 14.5024 C 9.41647 14.8427 9.37281 15.193 9.23171 15.5083 L 9.23171 15.53 C 9.11144 15.8589 8.89432 16.1435 8.60897 16.3464 C 8.32363 16.5494 7.98347 16.661 7.63337 16.6667 L 5.01504 16.6667 C 4.56904 16.6667 4.1413 16.8439 3.82592 17.1592 C 3.51055 17.4746 3.33337 17.9023 3.33337 18.3483 L 3.33337 21.6517 C 3.33337 22.0977 3.51055 22.5254 3.82592 22.8408 C 4.1413 23.1562 4.56904 23.3333 5.01504 23.3333 L 7.63337 23.3333 C 7.9796 23.3406 8.3157 23.4516 8.59824 23.6518 C 8.88078 23.8521 9.09679 24.1324 9.21837 24.4567 L 9.21837 24.4783 C 9.35948 24.7937 9.40313 25.144 9.34374 25.4843 C 9.28435 25.8246 9.12461 26.1394 8.88504 26.3883 L 7.03504 28.2383 C 6.71954 28.554 6.5423 28.982 6.5423 29.4283 C 6.5423 29.8746 6.71954 30.3027 7.03504 30.6183 L 9.36837 32.9517 C 9.68404 33.2672 10.1121 33.4444 10.5584 33.4444 C 11.0047 33.4444 11.4327 33.2672 11.7484 32.9517 L 13.5984 31.1017 C 13.8473 30.8621 14.1621 30.7024 14.5024 30.643 C 14.8427 30.5836 15.193 30.6272 15.5084 30.7683 L 15.53 30.7767 C 15.8576 30.8964 16.1413 31.1123 16.3441 31.396 C 16.547 31.6797 16.6594 32.018 16.6667 32.3667 L 16.6667 34.985 C 16.6667 35.431 16.8439 35.8588 17.1593 36.1741 C 17.4746 36.4895 17.9024 36.6667 18.3484 36.6667 L 21.6517 36.6667 C 21.8725 36.6667 22.0912 36.6232 22.2953 36.5387 C 22.4993 36.4542 22.6847 36.3303 22.8408 36.1741 C 22.997 36.018 23.1209 35.8326 23.2054 35.6286 C 23.2899 35.4245 23.3334 35.2058 23.3334 34.985 L 23.3334 32.3667 C 23.3407 32.0204 23.4516 31.6844 23.6518 31.4018 C 23.8521 31.1193 24.1324 30.9033 24.4567 30.7817 L 24.4784 30.7733 C 24.7937 30.6322 25.144 30.5886 25.4843 30.648 C 25.8247 30.7074 26.1395 30.8671 26.3884 31.1067 L 28.2384 32.9567 C 28.554 33.2722 28.9821 33.4494 29.4284 33.4494 C 29.8747 33.4494 30.3027 33.2722 30.6184 32.9567 L 32.9517 30.6233 C 33.2672 30.3077 33.4444 29.8796 33.4444 29.4333 C 33.4444 28.987 33.2672 28.559 32.9517 28.2433 L 31.1017 26.3933 C 30.8621 26.1444 30.7024 25.8296 30.643 25.4893 C 30.5836 25.149 30.6273 24.7987 30.7684 24.4833 L 30.7767 24.4617 C 30.8978 24.1357 31.1142 23.8537 31.3978 23.6525 C 31.6814 23.4512 32.019 23.34 32.3667 23.3333 L 34.985 23.3333 C 35.431 23.3333 35.8588 23.1562 36.1742 22.8408 C 36.4895 22.5254 36.6667 22.0977 36.6667 21.6517 L 36.6667 18.3483 C 36.6667 18.1275 36.6232 17.9088 36.5387 17.7048 C 36.4542 17.5008 36.3303 17.3154 36.1742 17.1592 C 36.018 17.0031 35.8326 16.8792 35.6286 16.7947 C 35.4246 16.7102 35.2059 16.6667 34.985 16.6667 Z M 20 25 C 19.0111 25 18.0444 24.7068 17.2222 24.1574 C 16.3999 23.608 15.7591 22.8271 15.3806 21.9134 C 15.0022 20.9998 14.9032 19.9945 15.0961 19.0246 C 15.289 18.0547 15.7652 17.1637 16.4645 16.4645 C 17.1638 15.7652 18.0547 15.289 19.0246 15.0961 C 19.9945 14.9032 20.9998 15.0022 21.9135 15.3806 C 22.8271 15.759 23.608 16.3999 24.1574 17.2222 C 24.7068 18.0444 25 19.0111 25 20 C 25 21.3261 24.4733 22.5979 23.5356 23.5355 C 22.5979 24.4732 21.3261 25 20 25 Z" stroke-linecap="round" />
</g>
</svg>