<svg width="30" height="31" viewBox="0 0 30 31" fill="none" xmlns="http://www.w3.org/2000/svg">
<g opacity="0.9">
<path d="M4.52998 19.25C6.2609 20.9834 8.56594 22.0239 11.0109 22.1757C13.4558 22.3274 15.8718 21.5798 17.8037 20.0738L24.4512 26.7213C24.687 26.949 25.0027 27.0749 25.3305 27.0721C25.6582 27.0693 25.9717 26.9378 26.2035 26.706C26.4353 26.4743 26.5667 26.1608 26.5696 25.833C26.5724 25.5053 26.4464 25.1895 26.2187 24.9538L19.5712 18.3063C21.1441 16.2877 21.8877 13.7452 21.6505 11.1972C21.4132 8.64925 20.2129 6.28775 18.2943 4.59434C16.3758 2.90092 13.8835 2.00315 11.3258 2.08411C8.76809 2.16506 6.33759 3.21865 4.52998 5.03001C3.59598 5.96354 2.85506 7.07194 2.34955 8.2919C1.84405 9.51186 1.58386 10.8195 1.58386 12.14C1.58386 13.4606 1.84405 14.7682 2.34955 15.9881C2.85506 17.2081 3.59598 18.3165 4.52998 19.25ZM6.29748 6.80001C7.5332 5.56432 9.15913 4.79531 10.8983 4.62401C12.6374 4.4527 14.3821 4.8897 15.8352 5.86054C17.2882 6.83138 18.3597 8.276 18.8671 9.94828C19.3745 11.6206 19.2863 13.417 18.6177 15.0316C17.949 16.6462 16.7413 17.9789 15.2001 18.8029C13.659 19.6268 11.8799 19.8909 10.1659 19.5501C8.45188 19.2094 6.90903 18.2849 5.80023 16.9342C4.69142 15.5835 4.08524 13.8901 4.08498 12.1425C4.08155 11.1495 4.27536 10.1656 4.65517 9.24811C5.03497 8.33057 5.5932 7.4976 6.29748 6.79751V6.80001Z" fill="white" fill-opacity="0.9" stroke="white"/>
</g>
</svg>